<?xml version="1.0" encoding="UTF-8"?>
<svg id="Layer_1" data-name="Layer 1" xmlns="http://www.w3.org/2000/svg" xmlns:xlink="http://www.w3.org/1999/xlink" viewBox="0 0 4000 4000">
  <defs>
    <style>
      .cls-1 {
        fill: url(#linear-gradient-2);
      }

      .cls-2 {
        fill: url(#linear-gradient-17);
      }

      .cls-3 {
        fill: url(#linear-gradient-15);
      }

      .cls-4 {
        fill: #ffce4b;
      }

      .cls-4, .cls-5, .cls-6, .cls-7, .cls-8, .cls-9, .cls-10, .cls-11, .cls-12 {
        fill-rule: evenodd;
      }

      .cls-13 {
        fill: url(#linear-gradient-18);
      }

      .cls-14 {
        fill: url(#linear-gradient-28);
      }

      .cls-15 {
        fill: url(#linear-gradient-14);
      }

      .cls-16 {
        fill: url(#linear-gradient-20);
      }

      .cls-17 {
        fill: url(#linear-gradient-6);
      }

      .cls-5 {
        fill: #5ef9f6;
      }

      .cls-18 {
        fill: url(#linear-gradient-11);
      }

      .cls-19 {
        filter: url(#drop-shadow-3);
      }

      .cls-20 {
        filter: url(#drop-shadow-1);
      }

      .cls-21 {
        fill: url(#linear-gradient-10);
      }

      .cls-22 {
        fill: url(#linear-gradient-16);
      }

      .cls-23 {
        fill: url(#linear-gradient-31);
      }

      .cls-6 {
        fill: #303030;
      }

      .cls-24 {
        fill: url(#linear-gradient-21);
      }

      .cls-7 {
        fill: #00478f;
      }

      .cls-25 {
        filter: url(#drop-shadow-2);
      }

      .cls-26 {
        fill: url(#linear-gradient-25);
      }

      .cls-27 {
        fill: url(#linear-gradient-5);
      }

      .cls-28 {
        fill: none;
      }

      .cls-29 {
        fill: url(#linear-gradient-7);
      }

      .cls-30 {
        fill: url(#linear-gradient-24);
      }

      .cls-31 {
        fill: url(#linear-gradient-9);
      }

      .cls-32 {
        fill: url(#linear-gradient-22);
      }

      .cls-8 {
        fill: #0286cf;
      }

      .cls-33 {
        fill: url(#linear-gradient-3);
      }

      .cls-9 {
        fill: #c61621;
      }

      .cls-34 {
        fill: url(#linear-gradient);
      }

      .cls-35 {
        fill: url(#linear-gradient-27);
      }

      .cls-36 {
        fill: url(#linear-gradient-29);
      }

      .cls-37 {
        fill: url(#linear-gradient-30);
      }

      .cls-10 {
        fill: #f3f3f3;
      }

      .cls-38 {
        fill: url(#linear-gradient-23);
      }

      .cls-39 {
        fill: url(#linear-gradient-19);
      }

      .cls-11 {
        fill: #606060;
      }

      .cls-40 {
        fill: url(#linear-gradient-4);
      }

      .cls-41 {
        fill: url(#linear-gradient-8);
      }

      .cls-42 {
        fill: url(#linear-gradient-12);
      }

      .cls-43 {
        fill: url(#linear-gradient-13);
      }

      .cls-44 {
        fill: url(#linear-gradient-26);
      }
    </style>
    <filter id="drop-shadow-1" filterUnits="userSpaceOnUse">
      <feOffset dx="0" dy="0"/>
      <feGaussianBlur result="blur" stdDeviation="50"/>
      <feFlood flood-color="#5ef9f6" flood-opacity=".75"/>
      <feComposite in2="blur" operator="in"/>
      <feComposite in="SourceGraphic"/>
    </filter>
    <filter id="drop-shadow-2" filterUnits="userSpaceOnUse">
      <feOffset dx="0" dy="0"/>
      <feGaussianBlur result="blur-2" stdDeviation="50"/>
      <feFlood flood-color="#5ef9f6" flood-opacity="1"/>
      <feComposite in2="blur-2" operator="in"/>
      <feComposite in="SourceGraphic"/>
    </filter>
    <linearGradient id="linear-gradient" x1="1422.51" y1="3723.95" x2="1498.53" y2="3723.95" gradientUnits="userSpaceOnUse">
      <stop offset="0" stop-color="#f7e584"/>
      <stop offset=".35" stop-color="#eeca64"/>
      <stop offset=".58" stop-color="#ae7723"/>
      <stop offset=".84" stop-color="#e2b75c"/>
      <stop offset=".88" stop-color="#ebc265"/>
      <stop offset="1" stop-color="#fbf09c"/>
    </linearGradient>
    <linearGradient id="linear-gradient-2" x1="1523.72" y1="3723.84" x2="1559" y2="3723.84" xlink:href="#linear-gradient"/>
    <linearGradient id="linear-gradient-3" x1="1585.04" y1="3723.84" x2="1661.06" y2="3723.84" xlink:href="#linear-gradient"/>
    <linearGradient id="linear-gradient-4" x1="1685.84" y1="3723.84" x2="1761.65" y2="3723.84" xlink:href="#linear-gradient"/>
    <linearGradient id="linear-gradient-5" x1="1787.06" y1="3723.84" x2="1863.08" y2="3723.84" xlink:href="#linear-gradient"/>
    <linearGradient id="linear-gradient-6" x1="1960.31" y1="3723.84" x2="2036.12" y2="3723.84" xlink:href="#linear-gradient"/>
    <linearGradient id="linear-gradient-7" x1="2063" y1="3723.84" x2="2133.56" y2="3723.84" xlink:href="#linear-gradient"/>
    <linearGradient id="linear-gradient-8" x1="2164.64" y1="3723.84" x2="2199.92" y2="3723.84" xlink:href="#linear-gradient"/>
    <linearGradient id="linear-gradient-9" x1="2223.86" y1="3723.84" x2="2299.67" y2="3723.84" xlink:href="#linear-gradient"/>
    <linearGradient id="linear-gradient-10" x1="2324.03" y1="3723.84" x2="2359.31" y2="3723.84" xlink:href="#linear-gradient"/>
    <linearGradient id="linear-gradient-11" x1="2386.6" x2="2451.71" xlink:href="#linear-gradient"/>
    <linearGradient id="linear-gradient-12" x1="2479.21" y1="3723.84" x2="2555.23" y2="3723.84" xlink:href="#linear-gradient"/>
    <filter id="drop-shadow-3" filterUnits="userSpaceOnUse">
      <feOffset dx="0" dy="0"/>
      <feGaussianBlur result="blur-3" stdDeviation="50"/>
      <feFlood flood-color="#5ef9f6" flood-opacity="1"/>
      <feComposite in2="blur-3" operator="in"/>
      <feComposite in="SourceGraphic"/>
    </filter>
    <linearGradient id="linear-gradient-13" x1="393.76" y1="3369.02" x2="469.57" y2="3369.02" xlink:href="#linear-gradient"/>
    <linearGradient id="linear-gradient-14" x1="549.37" y1="3369.12" x2="614.47" y2="3369.12" xlink:href="#linear-gradient"/>
    <linearGradient id="linear-gradient-15" x1="695.11" y1="3369.02" x2="771.13" y2="3369.02" xlink:href="#linear-gradient"/>
    <linearGradient id="linear-gradient-16" x1="850.72" y1="3369.02" x2="926.74" y2="3369.02" xlink:href="#linear-gradient"/>
    <linearGradient id="linear-gradient-17" x1="1005.28" y1="3369.02" x2="1081.3" y2="3369.02" xlink:href="#linear-gradient"/>
    <linearGradient id="linear-gradient-18" x1="1161.1" y1="3369.02" x2="1237.12" y2="3369.02" xlink:href="#linear-gradient"/>
    <linearGradient id="linear-gradient-19" x1="1316.5" y1="3369.12" x2="1433.05" y2="3369.12" xlink:href="#linear-gradient"/>
    <linearGradient id="linear-gradient-20" x1="1512.64" y1="3369.02" x2="1588.45" y2="3369.02" xlink:href="#linear-gradient"/>
    <linearGradient id="linear-gradient-21" x1="1667.41" y1="3369.02" x2="1743.43" y2="3369.02" xlink:href="#linear-gradient"/>
    <linearGradient id="linear-gradient-22" x1="1821.55" y1="3369.02" x2="1897.36" y2="3369.02" xlink:href="#linear-gradient"/>
    <linearGradient id="linear-gradient-23" x1="2099.59" y1="3369.12" x2="2164.69" y2="3369.12" xlink:href="#linear-gradient"/>
    <linearGradient id="linear-gradient-24" x1="2244.27" y1="3369.12" x2="2320.3" y2="3369.12" xlink:href="#linear-gradient"/>
    <linearGradient id="linear-gradient-25" x1="2521.05" y1="3369.12" x2="2597.07" y2="3369.12" xlink:href="#linear-gradient"/>
    <linearGradient id="linear-gradient-26" x1="2675.19" y1="3369.02" x2="2751" y2="3369.02" xlink:href="#linear-gradient"/>
    <linearGradient id="linear-gradient-27" x1="2830.17" y1="3369.02" x2="2906.19" y2="3369.02" xlink:href="#linear-gradient"/>
    <linearGradient id="linear-gradient-28" x1="2985.99" y1="3369.02" x2="3061.8" y2="3369.02" xlink:href="#linear-gradient"/>
    <linearGradient id="linear-gradient-29" x1="3140.76" y1="3369.02" x2="3216.78" y2="3369.02" xlink:href="#linear-gradient"/>
    <linearGradient id="linear-gradient-30" x1="3296.58" y1="3369.02" x2="3367.14" y2="3369.02" xlink:href="#linear-gradient"/>
    <linearGradient id="linear-gradient-31" x1="3451.77" y1="3369.02" x2="3527.79" y2="3369.02" xlink:href="#linear-gradient"/>
  </defs>
  <rect class="cls-28" width="4000" height="3998.33"/>
  <g class="cls-20">
    <path class="cls-5" d="m2377.79,1489.18l21.58,9.27c21.62-40.17,40.57-81.93,56.03-124.87-3.68,5.7-7.36,11.4-11.05,17.09-21.27,32.75-43.28,66.5-66.56,98.51m-227.2,261.63c.65.97,1.28,1.97,1.9,2.98,34.91-37.66,69.04-76.69,101.35-115.95,19.21-23.34,38.05-47.22,55.57-71.86,4.96-6.98,10.04-14.28,14.97-21.77-60.27,50.01-147.59,133.2-168.3,191.25l-5.48,15.35Zm48.02,464.95c-1.15-19.09-1.37-38.47-.33-57.75-4.68,6.32-9.22,12.88-13.18,19.42,5.19,12.31,9.74,25.52,13.51,38.33Zm112.14-365.9l-.51-9.08c-.02-.39-.05-.81-.08-1.26-10.75,12.57-20.83,25.63-29.32,37.45-14.6,20.3-27.78,41.63-39.27,63.8,24.24-17.77,56.97-51.22,65.82-79.97l3.37-10.94Zm153.21-129.94c-15.34,7.82-31.23,14.89-47.65,21.18-7.94,21.52-16.72,43.09-26.01,63.86-5.04,11.28-10.43,22.79-16.38,33.87,18.58-21.09,36.54-42.82,53.37-65.2,12.73-16.93,25.51-35.02,36.66-53.71Zm199.89-121.92l1.01-21.86c.85-18.63,1.37-37.49,1.54-56.35-1.45,2.72-2.9,5.39-4.35,7.99-34.26,61.54-79.39,112.84-133.84,152.66l11.77,3.9-5.1,25.58c-1.84,9.23-4.18,19.48-7.02,30.24,44.92-40.41,88.28-86.41,107.06-124.68l11.62-23.68,17.3,6.19Zm-7.59,164.97l2-43.49c-.16.33-.33.66-.49.99-9.47,19.04-20.2,37.49-32.2,55.06,7.45-2.98,14.87-6,22.24-9.04,2.82-1.17,5.64-2.34,8.45-3.52Zm-315.46-1087.38l42.68,20.76c22.55-29.38,47.71-56.21,75.13-80.6-43.39,12.89-83.18,32.76-117.81,59.84Zm-93.15,148.91l58.65,7.29c9.6-23.75,20.7-46.87,33.31-69.17l-33.72-55.43c-9.62,10.08-18.68,20.86-27.14,32.37l-28.62,38.94-.26,4.52c-.8,13.81-1.55,27.64-2.23,41.48Zm-5.16,157.11l23.96-.98c3.65-24.82,8.62-49.45,15-73.72l-36.09-30.11c-1.05,27.4-1.87,54.79-2.45,82.12-.16,7.56-.3,15.12-.41,22.68Zm1.66,187.54l18.57-.76c-1.05-10.56-1.99-21.12-2.64-31.66-1.58-25.95-1.88-52.02-.85-78.01l-16.69-9.8c.37,19.66.9,41.02,3.77,60.33l.37,2.45-.05,2.48c-.36,18.23-1.29,36.66-2.48,54.96Zm26.85,94.16c-.26-5.25-.56-10.24-.88-14.9l-30.84-18.1c-3.73,38.77-8.8,77.52-15.76,115.7-.78,4.27-1.59,8.58-2.43,12.91,9.93-22.83,16.82-47.08,21.27-71.34l4.73-25.76,23.92,1.49Zm-196.04,994.33c-9.63-27.98-19.71-55.81-29.56-83.71-3.34-9.47-6.67-18.96-9.96-28.49l-13.58,38.66,49.67,68.66c1.15,1.59,2.3,3.22,3.43,4.88Zm159.8,69.05l-18.04,2.23-3.67-15.37c-.38,21.17-3.37,42.2-9.74,62.44l-.32,1.03,23.99,2.87c1.06-6.56,2-12.94,2.9-19.03,1.68-11.47,3.28-22.85,4.89-34.17Zm581.04-598.99l-11.72,18.56c-14.46,22.88-39.7,47.83-59.91,65.25-16.89,14.56-34.84,27.88-53.6,39.99l4.08-1.14,13.16,32.88c25.71-15.05,50.46-31.51,73.53-49.47,55.97-43.59,107.42-100.69,124.1-171.41,1.04-10.69,1.71-21.63,2.16-32.51-16.24,31.83-39.8,59.44-69.36,82.11l-21.65,16.61-.78-.87Zm-1185.63-238.51l-21.58,9.27c-21.63-40.17-40.57-81.93-56.03-124.87,3.68,5.7,7.36,11.4,11.05,17.09,21.27,32.75,43.28,66.5,66.56,98.51Zm227.2,261.63c-.65.97-1.28,1.97-1.9,2.98-34.91-37.66-69.04-76.69-101.35-115.95-19.21-23.34-38.05-47.22-55.57-71.86-4.96-6.98-10.04-14.28-14.97-21.77,60.27,50.01,147.59,133.2,168.3,191.25l5.48,15.35Zm-48.02,464.95c1.15-19.09,1.37-38.47.33-57.75,4.68,6.32,9.22,12.88,13.18,19.42-5.19,12.31-9.74,25.52-13.51,38.33Zm-112.14-365.9l.51-9.08c.02-.39.05-.81.08-1.26,10.75,12.57,20.83,25.63,29.32,37.45,14.59,20.3,27.78,41.63,39.27,63.8-24.24-17.77-56.97-51.22-65.82-79.97l-3.37-10.94Zm-153.21-129.94c15.34,7.82,31.23,14.89,47.65,21.18,7.94,21.52,16.72,43.09,26.01,63.86,5.04,11.28,10.43,22.79,16.37,33.87-18.58-21.09-36.54-42.82-53.37-65.2-12.73-16.93-25.51-35.02-36.66-53.71Zm-199.89-121.92l-1.01-21.86c-.85-18.63-1.37-37.49-1.54-56.35,1.45,2.72,2.9,5.39,4.34,7.99,34.27,61.54,79.39,112.84,133.84,152.66l-11.77,3.9,5.1,25.58c1.84,9.23,4.19,19.48,7.02,30.24-44.92-40.41-88.28-86.41-107.06-124.68l-11.62-23.68-17.3,6.19Zm7.59,164.97l-2-43.49c.16.33.33.66.49.99,9.47,19.04,20.2,37.49,32.2,55.06-7.45-2.98-14.87-6-22.24-9.04-2.82-1.17-5.64-2.34-8.45-3.52Zm315.46-1087.38l-42.68,20.76c-22.55-29.38-47.71-56.21-75.13-80.6,43.39,12.89,83.18,32.76,117.81,59.84Zm93.15,148.91l-58.65,7.29c-9.59-23.75-20.7-46.87-33.31-69.17l33.72-55.43c9.62,10.08,18.68,20.86,27.14,32.37l28.62,38.94.26,4.52c.8,13.81,1.55,27.64,2.23,41.48Zm5.16,157.11l-23.96-.98c-3.65-24.82-8.62-49.45-15-73.72l36.09-30.11c1.05,27.4,1.87,54.79,2.45,82.12.16,7.56.3,15.12.41,22.68Zm-1.66,187.54l-18.57-.76c1.05-10.56,1.99-21.12,2.64-31.66,1.58-25.95,1.88-52.02.85-78.01l16.69-9.8c-.37,19.66-.9,41.02-3.77,60.33l-.37,2.45.05,2.48c.36,18.23,1.29,36.66,2.48,54.96Zm-26.85,94.16c.26-5.25.56-10.24.88-14.9l30.84-18.1c3.73,38.77,8.8,77.52,15.76,115.7.78,4.27,1.59,8.58,2.43,12.91-9.93-22.83-16.82-47.08-21.27-71.34l-4.73-25.76-23.91,1.49Zm196.04,994.33c9.63-27.98,19.71-55.81,29.56-83.71,3.34-9.47,6.67-18.96,9.96-28.49l13.58,38.66-49.67,68.66c-1.15,1.59-2.3,3.22-3.43,4.88Zm-159.8,69.05l18.04,2.23,3.67-15.37c.38,21.17,3.37,42.2,9.74,62.44l.32,1.03-23.99,2.87c-1.06-6.56-2-12.94-2.9-19.03-1.68-11.47-3.28-22.85-4.89-34.17Zm-581.04-598.99l11.72,18.56c14.46,22.88,39.7,47.83,59.91,65.25,16.89,14.56,34.84,27.88,53.6,39.99l-4.08-1.14-13.16,32.88c-25.71-15.05-50.46-31.51-73.53-49.47-55.97-43.59-107.42-100.69-124.1-171.41-1.04-10.69-1.71-21.63-2.16-32.51,16.24,31.83,39.8,59.44,69.36,82.11l21.65,16.61.78-.87Zm811.82-221.66c33.35-65.29,39.28-137.55,23.03-211.42-4.9-22.26-12.95-48.46-23.03-73.13-10.08,24.67-18.13,50.87-23.03,73.13-16.25,73.87-10.32,146.13,23.03,211.42Zm0,352.01l5.74-10.1,1.74,23.27,32.1,56.5c5.37-23.89,9.36-48.32,11.35-70.63,1.21-13.63,1.76-27.47,1.04-41.15l-1.38-26.18,40.14-6.92c-.16-5.77-.45-11.52-.87-17.25l-2.99-40.18c-6.65,10.25-11.57,20.64-13.43,30.37l-5.11,26.71-54.09-5.79.67-27.18c.57-23.17,4.44-49.65,10.95-74.79-6.25,2.91-12.39,5.36-18.01,6.91l-7.86,2.17-7.86-2.17c-5.62-1.55-11.76-4-18.01-6.91,6.51,25.14,10.38,51.62,10.95,74.79l.67,27.18-54.09,5.79-5.11-26.71c-1.86-9.73-6.78-20.12-13.43-30.37l-2.99,40.18c-.43,5.73-.72,11.48-.87,17.25l40.14,6.92-1.38,26.18c-.72,13.68-.17,27.52,1.04,41.15,1.99,22.31,5.99,46.74,11.35,70.63l32.1-56.5,1.74-23.27,5.74,10.1Zm0,301.33l24.62-34.03c-8.25-24.59-16.03-49.36-22.68-74.3-.65-2.43-1.3-4.9-1.94-7.39-.64,2.5-1.29,4.96-1.94,7.39-6.65,24.94-14.43,49.71-22.68,74.3l24.62,34.03Zm0,271.01l1.85-19.5,26.17-.92c.79-13.09,1.16-26.16,1.02-39.14-.31-29.9-3.33-62.65-13.29-91l-15.75-44.84-15.75,44.84c-9.96,28.35-12.97,61.1-13.28,91-.13,12.98.23,26.05,1.02,39.14l26.17.92,1.84,19.5Zm829.66-963.58l-.03-.31-.02-.31c-2.1-28.14-1.11-59.1,1.02-87.13,4.45-58.68,16.37-119.91,40.79-173.69,14.75-32.48,34.35-62.72,60.14-87.53l51.24-49.3-1.23,71.08c-1.48,85.06.5,172.49,5.98,257.29,3.49,54.07,8.38,111.55,19.7,164.56l.16.74.12.75c7.6,47.35,5.12,107.6-3.52,154.2-18.74,101.01-71.49,184.66-168.64,225.64-38.35,22.9-79.52,44.75-119.91,63.64,32.4,15.07,61.66,36.12,85.76,62.94l4.25,4.73c13.46-9.93,28.68-17.69,45.47-23.57l140.96-49.37-111.56,99.28c-10.52,9.36-18.82,20.29-25.27,32.79-21.89,42.39-22.11,103.77-24.71,150.73-2.58,46.49-6.74,94.13-25.23,137.42-32.02,74.93-97,111.43-173.69,129.05-17.99,4.48-36.63,8.12-54.86,11.36-39.52,7.03-80.03,12.1-120.16,13.47-22.04.75-44.31.38-66.24-1.97l-1.5-.16-1.47-.31c-18.37-3.89-44.4-1-60.97,7.55-49.71,25.66-42.45,104.42-34.64,149.34l.16.89.1.9c4.77,42.82,21.96,148.65,46.98,182.19l24.29,32.56h-105.69c-11.41-3.39-22.74-6.96-33.89-10.68-2.91-.97-5.85-1.96-8.8-2.98.99,4.58,2.02,9.14,3.09,13.67h-435.66c1.07-4.53,2.1-9.09,3.09-13.67-2.96,1.02-5.9,2.01-8.8,2.98-11.15,3.72-22.48,7.29-33.89,10.68h-105.69l24.29-32.56c25.02-33.54,42.21-139.37,46.98-182.19l.1-.9.15-.89c7.82-44.92,15.07-123.68-34.64-149.34-16.56-8.55-42.6-11.44-60.97-7.55l-1.47.31-1.5.16c-21.94,2.36-44.21,2.73-66.24,1.97-40.13-1.37-80.64-6.44-120.16-13.47-18.23-3.24-36.87-6.87-54.86-11.36-76.69-17.63-141.68-54.12-173.69-129.05-18.49-43.29-22.66-90.92-25.23-137.42-2.6-46.97-2.82-108.34-24.71-150.73-6.45-12.49-14.76-23.43-25.27-32.79l-111.56-99.28,140.96,49.37c16.78,5.88,32.01,13.63,45.47,23.57l4.25-4.73c24.09-26.83,53.36-47.88,85.76-62.94-40.39-18.89-81.56-40.74-119.91-63.64-97.15-40.99-149.9-124.64-168.64-225.64-8.64-46.6-11.13-106.85-3.52-154.2l.12-.75.16-.74c11.32-53,16.21-110.49,19.7-164.56,5.48-84.81,7.46-172.23,5.98-257.29l-1.23-71.08,51.24,49.3c25.79,24.81,45.4,55.05,60.14,87.53,24.42,53.78,36.34,115.01,40.79,173.69,2.13,28.03,3.12,58.99,1.02,87.13l-.02.31-.03.31c-12.65,131.78-1.09,207.98,116.78,268.37,17.24,8.83,35.02,16.9,52.9,24.53l-58.37-172.76c-23.62-69.92-37.21-143.52-38.11-217.29h0s0-.11,0-.11c-.09-7.54-.05-15.08.13-22.61.05-39.88-.68-122.24-7.03-164.58,0,0-5.72-50.02-28.59-85.75,0,0,31.45,15.01,38.6,60.74,0,0,6.5,32.04,16.39,51.04,6.19-23.4,14.04-46.54,23.52-65.31l54.12-107.15,1.78,120.01c1.13,76.47,19.69,152.5,48.73,223.44v-150.12l.27.67c-7.75-55.48-11.13-88.77-10.84-144.43.64-127.6-96.18-315.93-51.03-373.36,0,0-15.89,20.12,60.69,203.71,1.95-15.07,4.24-30.45,7.31-45.17l32.57-155.85,25.5,157.16c3.95,24.37,9.41,48.52,15.86,72.34,41.68,48.84,26.8-127.14,26.8-127.14,37.17,64.31,25.74,150.06,25.74,150.06-14.3,57.17,16.4,162.32,16.4,162.32,3.35-31.78,8.97-63.91,16.25-92.38l24.21-94.65,32.28,92.21c1.84,5.26,4.77,11.17,8.36,17.35,11.61-101.88-15.75-194.18-72.29-276.29-1.82-2-62.53-68.34-118.86-93.67,0,0,24.59,3.35,49.65,11.68-41.87-41.46-89.8-77.9-140.04-108.64-21.23-12.98-45.03-26.68-67.85-36.82l-117.55-52.23,60.6-2c-58.61-2.2-68.62-77.12-68.62-77.12,31.71,64.66,167.74,73.45,198.05,74.61,2,.05,4.01.11,6.02.17-.67-.26-1.34-.51-2.02-.76-41.73-15.29,4.55-91.9,4.55-91.9,61.75-90.66-89.77-153.79-80.08-260.02,18.42,61.17,118.81,54.48,145.01,110.88,53.09,114.25-44.64,169.1,111.75,267.67,37.24,10.54,73.12,24.74,106.34,43.47,19.78-54.56-32.09-114.84-32.09-114.84,54.33,25.01,65.05,77.89,65.05,77.89-1.52,34.04,32.04,78.72,51.58,101.7,4.69,4.89,9.22,9.93,13.57,15.11,0,0,10.63-26.78,14.91-63.94,4.29-37.16-18.59-85.75-18.59-85.75,35.74,20.01,68.63,111.47,61.48,168.64-3.77,30.18,8.51,76.77,20.95,114.04,6.25,12.65,11.8,26.67,16.74,41.36l2.95-.37-2.4,2.01c1.77,5.32,3.46,10.73,5.08,16.18h0c9.63,32.46,16.7,66.71,22.24,95.76,3.52,18.48,6.81,37.22,9.84,56.09,2.37-6.14,4.78-12.24,7.24-18.28l45.68-112.27,11.09,120.69c2.91,31.65,16.51,69.17,33.66,101.9,2.74-5.72,5.44-11.44,8.11-17.15l26.74-56.96,26.74,56.96c2.68,5.7,5.38,11.43,8.11,17.15,17.15-32.72,30.75-70.25,33.66-101.9l11.09-120.69,45.68,112.27c2.46,6.03,4.87,12.13,7.24,18.28,3.03-18.87,6.32-37.61,9.84-56.09,5.54-29.05,12.6-63.3,22.24-95.76h0c1.62-5.46,3.31-10.86,5.08-16.19l-2.4-2.01,2.95.37c4.95-14.69,10.49-28.71,16.74-41.36,12.44-37.26,24.73-83.86,20.96-114.04-7.15-57.17,25.73-148.63,61.48-168.64,0,0-22.88,48.59-18.59,85.75,4.29,37.16,14.92,63.94,14.92,63.94,4.35-5.18,8.88-10.22,13.57-15.11,19.53-22.99,53.1-67.67,51.58-101.7,0,0,10.72-52.88,65.06-77.89,0,0-51.87,60.28-32.09,114.84,33.21-18.73,69.09-32.93,106.34-43.47,156.38-98.57,58.65-153.42,111.75-267.67,26.21-56.4,126.59-49.71,145.01-110.88,9.69,106.23-141.83,169.36-80.08,260.02,0,0,46.28,76.61,4.55,91.9-.67.25-1.34.5-2.02.76,2.01-.06,4.01-.12,6.02-.17,30.3-1.16,166.34-9.95,198.04-74.61,0,0-10.01,74.92-68.62,77.12l60.6,2-117.55,52.23c-22.83,10.14-46.62,23.84-67.85,36.82-50.24,30.73-98.18,67.18-140.04,108.64,25.06-8.33,49.65-11.68,49.65-11.68-56.33,25.34-117.04,91.68-118.86,93.67-56.54,82.11-83.9,174.42-72.29,276.29,3.59-6.18,6.52-12.09,8.36-17.35l32.28-92.21,24.21,94.65c7.28,28.47,12.9,60.6,16.25,92.38,0,0,30.69-105.15,16.4-162.32,0,0-11.44-85.75,25.74-150.06,0,0-14.88,175.98,26.8,127.14,6.45-23.82,11.91-47.97,15.86-72.34l25.5-157.16,32.57,155.85c3.08,14.72,5.36,30.1,7.31,45.17,76.57-183.59,60.69-203.71,60.69-203.71,45.15,57.44-51.68,245.76-51.03,373.36.28,55.66-3.1,88.95-10.84,144.43l.27-.67v150.12c29.04-70.94,47.59-146.97,48.73-223.44l1.78-120.01,54.11,107.15c9.48,18.77,17.34,41.91,23.52,65.31,9.89-19,16.39-51.04,16.39-51.04,7.15-45.73,38.6-60.74,38.6-60.74-22.88,35.73-28.6,85.75-28.6,85.75-6.35,42.34-7.08,124.7-7.03,164.58.18,7.54.22,15.08.13,22.61v.12s0-.01,0-.01c-.9,73.77-14.49,147.37-38.11,217.29l-58.37,172.76c17.88-7.63,35.66-15.7,52.9-24.53,117.87-60.39,129.43-136.59,116.78-268.37Z"/>
    <path class="cls-7" d="m1929.31,2803.8s27.58,17.27,74.68,17.27,74.68-17.27,74.68-17.27c-20.98.41-53.07-9.87-53.07-9.87,27.98,4.11,72-12.34,72-12.34-53.08-3.29-93.61-23.44-93.61-23.44,0,0-40.53,20.15-93.61,23.44,0,0,44.02,16.45,72,12.34,0,0-32.09,10.28-53.07,9.87"/>
    <path class="cls-11" d="m1736.56,1292.9c27.15,148.05,118.49,189.17,118.49,189.17-59.25-121.73-64.18-368.48-64.18-368.48,11.52-77.32-3.29-332.29-3.29-332.29-11.89-26.47-34.56-59.22-34.56-59.22-118.49-161.21-315.97-152.16-315.97-152.16,78.81,47.4,136.4,103.93,178.2,163.74l51.36-24.97-32.64,53.65c20.37,33.48,36.19,67.67,48.37,101.6l58.3-7.25-47.68,39.77c11.47,38.82,18.5,76.87,22.47,112.64l55.65,2.27-52.75,30.96c2.17,34.1,1.74,65.46.09,92.6-1.02,16.81-3.39,38.12-5.73,61.67l51.53,2.1-54.66,32.07c-6.37,78.98-6.25,169.63,42.65,201.95-20.57-54.29-15.63-139.83-15.63-139.83"/>
    <path class="cls-6" d="m1771.07,1011.37l-52.75,30.96c2.17,34.1,1.74,65.46.09,92.6-1.02,16.81-3.39,38.12-5.73,61.67l21.45.88c13.04-54.63,5.88-144,5.88-144l31.07-42.1Zm-30.44-154.68l-47.68,39.77c11.47,38.82,18.5,76.87,22.47,112.64l20.86.85c3.68-30.36-20.14-103.71-20.14-103.71l24.49-49.56Zm-74.03-148l-32.64,53.65c20.37,33.48,36.19,67.67,48.37,101.6l25-3.11c-6.76-42.54-51.66-103.05-51.66-103.05l10.94-49.1Zm-229.56-138.77c78.81,47.4,136.4,103.93,178.2,163.74l17.64-8.58c-31.66-65.03-131.69-123.48-195.84-155.17Zm299.52,722.98c27.15,148.05,118.49,189.17,118.49,189.17-8.33-17.12-15.59-36.71-21.91-57.74h0c-60.12-38.34-100.33-184.56-100.33-184.56l31.4-41.07-54.66,32.07c-6.37,78.98-6.25,169.63,42.65,201.95-20.57-54.29-15.63-139.83-15.63-139.83Z"/>
    <path class="cls-8" d="m2003.99,1156.12s-137.4,215.49,0,406.32c137.4-190.82,0-406.32,0-406.32"/>
    <path class="cls-8" d="m1674.84,1499.35c-65.83-83.9-192.55-294.46-192.55-294.46,34.56,304.33,258.37,528.05,258.37,528.05-49.37-72.38-105.32-213.85-105.32-213.85,44.43,95.41,232.87,291.17,232.87,291.17,0-25.5,16.46-46.88,16.46-46.88-7.4,99.52,25.51,190.82,25.51,190.82-13.99-50.99,12.34-139.82,12.34-139.82-4.11,78.14,28.8,176.84,28.8,176.84,14.81-6.58,36.2-44.42,36.2-44.42,6.91,92.07-88.43,291.2-111.91,399.74-10.7-34.55-2.47-95.41-2.47-95.41-34.56,50.17-40.32,115.97-40.32,115.97-27.98-88.83,23.04-190.82,23.04-190.82-23.04-47.71-100.39-125.02-100.39-125.02,47.73,100.34,13.17,245.1,13.17,245.1,3.29-284.59-302.81-407.96-302.81-407.96-171.97-55.11-236.98-157.92-236.98-157.92-26.64-18.84-41.14-41.95-41.14-41.95-104.32-80.03-80.64-194.11-80.64-194.11,15.63-143.11-23.86-243.46-23.86-243.46,12.34,75.67-1.65,207.27-1.65,207.27-19.75,95.41-8.23,208.92-8.23,208.92,52.66,231.95,435.29,337.23,435.29,337.23-37.85-44.42-177.73-118.44-177.73-118.44,553.19,154.98,331.95,525.83,487.12,636.62-25.51-47.71-25.51-114.33-25.51-114.33,14.81,60.87,58.42,124.2,58.42,124.2-21.39-69.09-6.58-145.17-6.58-145.17,16.23,38.71,57.6,62.92,57.6,62.92-5.76-91.3,58.42-180.13,58.42-180.13-37.85,107.75,8.23,284.59,8.23,284.59-4.12-51,6.58-115.15,6.58-115.15,5.76,60.86,28.8,126.66,28.8,126.66,0,0,23.04-65.8,28.8-126.66,0,0,10.7,64.15,6.58,115.15,0,0,46.08-176.84,8.23-284.59,0,0,64.18,88.83,58.42,180.13,0,0,41.37-24.21,57.6-62.92,0,0,14.81,76.08-6.58,145.17,0,0,43.61-63.33,58.42-124.2,0,0,0,66.62-25.51,114.33,155.17-110.79-66.07-481.63,487.12-636.62,0,0-139.88,74.03-177.73,118.44,0,0,382.63-105.28,435.29-337.23,0,0,11.52-113.51-8.23-208.92,0,0-13.99-131.6-1.65-207.27,0,0-39.49,100.35-23.86,243.46,0,0,23.68,114.08-80.64,194.11,0,0-14.5,23.12-41.14,41.95,0,0-65,102.82-236.98,157.92,0,0-306.1,123.38-302.81,407.96,0,0-34.56-144.76,13.17-245.1,0,0-77.35,77.31-100.39,125.02,0,0,51.02,101.99,23.04,190.82,0,0-5.76-65.8-40.32-115.97,0,0,8.23,60.86-2.47,95.41-23.48-108.54-118.81-307.67-111.91-399.74,0,0,21.39,37.84,36.2,44.42,0,0,32.91-98.7,28.8-176.84,0,0,26.33,88.83,12.34,139.82,0,0,32.91-91.3,25.51-190.82,0,0,16.46,21.38,16.46,46.88,0,0,188.44-195.76,232.87-291.17,0,0-55.95,141.47-105.32,213.85,0,0,223.81-223.72,258.37-528.05,0,0-126.72,210.56-192.55,294.46,0,0-171.15,131.6-204.89,226.19,0,0-4.11-59.22,1.65-82.25,0,0-70.76,50.99-81.46,106.92,0,0,2.47-101.99,52.66-152.16,0,0-73.25,48.53-97.1,55.11-23.85-6.58-97.1-55.11-97.1-55.11,50.19,50.17,52.66,152.16,52.66,152.16-10.7-55.93-81.46-106.92-81.46-106.92,5.76,23.03,1.65,82.25,1.65,82.25-33.74-94.59-204.89-226.19-204.89-226.19"/>
    <path class="cls-9" d="m1681.43,1780.65c-10.7,16.45-13.16,58.4-13.16,58.4-1.76,17.41,4.11,30.43,4.11,30.43,15.93,51.67,78.17,96.23,78.17,96.23,40.32,28.79,90.51,106.93,90.51,106.93-27.98-179.31-159.63-291.99-159.63-291.99"/>
    <path class="cls-11" d="m2271.42,1292.9c-27.15,148.05-118.49,189.17-118.49,189.17,59.24-121.73,64.18-368.48,64.18-368.48-11.52-77.32,3.29-332.29,3.29-332.29,11.89-26.47,34.56-59.22,34.56-59.22,118.49-161.21,315.97-152.16,315.97-152.16-78.81,47.4-136.4,103.93-178.2,163.74l-51.36-24.97,32.64,53.65c-20.36,33.48-36.19,67.67-48.37,101.6l-58.3-7.25,47.68,39.77c-11.47,38.82-18.5,76.87-22.47,112.64l-55.65,2.27,52.75,30.96c-2.17,34.1-1.74,65.46-.09,92.6,1.02,16.81,3.39,38.12,5.73,61.67l-51.53,2.1,54.65,32.07c6.37,78.98,6.25,169.63-42.65,201.95,20.57-54.29,15.63-139.83,15.63-139.83"/>
    <path class="cls-8" d="m1858.33,1224.39l10.7,54.29,41.96-99.52-10.7,100.35,50.19-88.01c-25.51-20.56-51.84-90.48-51.84-90.48l-40.32,123.38Z"/>
    <path class="cls-7" d="m1604.08,1140.5s-7.41,206.45,72.41,291.17c0,0-37.03-89.65-34.56-189.18,3.56-49.85-12.72-63.65-37.85-101.99"/>
    <path class="cls-8" d="m1614.78,1718.14c-256.73-90.47-293.75-342.99-293.75-342.99-13.99,57.57-7.41,202.34-7.41,202.34,0,0,9.9,28.62,32.91,50.99,45.83,93.39,209,210.56,209,210.56-34.56-39.48-53.49-134.89-53.49-134.89,46.9,98.7,176.09,224.55,176.09,224.55-8.23-21.38-5.76-59.22-5.76-59.22,0,0-5.87-13.03-4.11-30.43-24.69-39.48-53.49-120.91-53.49-120.91"/>
    <path class="cls-7" d="m1471.58,1495s27.98,111.86,111.09,159.57l-59.25-120.09-51.84-39.48Z"/>
    <path class="cls-7" d="m1564.59,2084.96s-83.11-45.24-130.83-55.11l-96.27,28.79s72.41,8.23,106.15,35.37c0,0,73.23-9.87,120.96-9.05"/>
    <path class="cls-7" d="m1601.62,2125.26c-49.25-2.49-94.15.6-142.76,4.32,77.62,15.72,162.61,65.92,210.24,128.1,0,0-32.09-106.93-67.47-132.42"/>
    <polygon class="cls-7" points="1636.39 2282.77 1540.52 2215.73 1480.04 2216.97 1595.24 2280.3 1636.39 2282.77"/>
    <path class="cls-7" d="m1699.33,2372.01c-51.63-32.77-73.77-38.85-129.19-45.24,0,0,109.44,66.62,134.95,106.1l-5.76-60.87Z"/>
    <path class="cls-4" d="m1585.78,2470.7c-116.31.88-139.96-1.31-250.15-29.61,0,0,67.47,81.43,309.39,84.72,0,0-43.61-21.39-74.06-26.32,0,0,97.1,6.58,144,23.85,0,0-32.09-46.88-129.19-52.64"/>
    <path class="cls-8" d="m1780.38,2604.77s3.29,143.94-23.04,236.06l-5.76,25.5-4.94,11.51,54.31-19.74s39.5-129.13,19.75-208.09c0,0-10.7,109.39-33.74,150.52,0,0,21.39-134.89-6.58-195.76"/>
    <path class="cls-7" d="m1866.36,2463.7s26.33,81.43,69.94,115.15c0,0,.82-55.11-14.81-69.91,0,0-47.73-37.83-56.78-57.57v7.2s1.65,5.14,1.65,5.14Z"/>
    <path class="cls-8" d="m1913.68,2840.82c-14.88,43.07-39.75,87.64-62.13,127.9,43.73-36.99,81.29-66.83,119.73-111.45l-57.6-16.45Z"/>
    <path class="cls-8" d="m2003.99,2857.68s-52.45,103.64,0,222.08c52.45-118.44,0-222.08,0-222.08"/>
    <path class="cls-8" d="m2149.65,1224.39l-10.7,54.29-41.96-99.52,10.7,100.35-50.19-88.01c25.51-20.56,51.84-90.48,51.84-90.48l40.32,123.38Z"/>
    <path class="cls-7" d="m2403.9,1140.5s7.41,206.45-72.41,291.17c0,0,37.03-89.65,34.56-189.18-3.56-49.85,12.72-63.65,37.85-101.99"/>
    <path class="cls-8" d="m2393.2,1718.14c256.73-90.47,293.75-342.99,293.75-342.99,13.99,57.57,7.41,202.34,7.41,202.34,0,0-9.9,28.62-32.91,50.99-45.83,93.39-209,210.56-209,210.56,34.56-39.48,53.49-134.89,53.49-134.89-46.9,98.7-176.09,224.55-176.09,224.55,8.23-21.38,5.76-59.22,5.76-59.22,0,0,5.87-13.03,4.11-30.43,24.69-39.48,53.49-120.91,53.49-120.91"/>
    <path class="cls-9" d="m2326.55,1780.65c10.7,16.45,13.16,58.4,13.16,58.4,1.76,17.41-4.11,30.43-4.11,30.43-15.93,51.67-78.17,96.23-78.17,96.23-40.32,28.79-90.51,106.93-90.51,106.93,27.98-179.31,159.63-291.99,159.63-291.99"/>
    <path class="cls-7" d="m2536.4,1495s-27.98,111.86-111.09,159.57l59.25-120.09,51.84-39.48Z"/>
    <path class="cls-7" d="m2443.39,2084.96s83.11-45.24,130.83-55.11l96.27,28.79s-72.41,8.23-106.15,35.37c0,0-73.23-9.87-120.96-9.05"/>
    <path class="cls-7" d="m2406.36,2125.26c49.25-2.49,94.15.6,142.76,4.32-77.62,15.72-162.61,65.92-210.24,128.1,0,0,32.09-106.93,67.47-132.42"/>
    <polygon class="cls-7" points="2371.6 2282.77 2467.46 2215.73 2527.94 2216.97 2412.74 2280.3 2371.6 2282.77"/>
    <path class="cls-7" d="m2308.65,2372.01c51.63-32.77,73.77-38.85,129.19-45.24,0,0-109.44,66.62-134.95,106.1l5.76-60.87Z"/>
    <path class="cls-4" d="m2422.2,2470.7c116.31.88,139.96-1.31,250.15-29.61,0,0-67.47,81.43-309.39,84.72,0,0,43.61-21.39,74.06-26.32,0,0-97.1,6.58-144,23.85,0,0,32.09-46.88,129.19-52.64"/>
    <path class="cls-8" d="m2227.6,2604.77s-3.29,143.94,23.04,236.06l5.76,25.5,4.94,11.51-54.31-19.74s-39.5-129.13-19.75-208.09c0,0,10.7,109.39,33.74,150.52,0,0-21.39-134.89,6.58-195.76"/>
    <path class="cls-7" d="m2141.62,2463.7s-26.33,81.43-69.94,115.15c0,0-.82-55.11,14.81-69.91,0,0,47.73-37.83,56.78-57.57v7.2s-1.65,5.14-1.65,5.14Z"/>
    <path class="cls-8" d="m2094.3,2840.82c14.88,43.07,39.75,87.64,62.13,127.9-43.74-36.99-81.29-66.83-119.73-111.45l57.6-16.45Z"/>
    <path class="cls-12" d="m1858.33,1224.39l40.32-123.38s26.33,69.91,51.84,90.48l-50.19,88.01,10.7-100.35-41.96,99.52-10.7-54.29Zm-386.75,270.61l51.84,39.48,59.25,120.09c-83.11-47.7-111.09-159.57-111.09-159.57Zm678.07-270.61l-40.32-123.38s-26.33,69.91-51.84,90.48l50.19,88.01-10.7-100.35,41.96,99.52,10.7-54.29Zm386.75,270.61l-51.84,39.48-59.25,120.09c83.11-47.7,111.09-159.57,111.09-159.57Zm-532.41-338.88s137.4,215.49,0,406.32c-137.4-190.82,0-406.32,0-406.32Zm291.32,40.47l-51.53,2.1,54.65,32.07c6.37,78.98,6.25,169.63-42.65,201.95,20.57-54.29,15.63-139.83,15.63-139.83-27.15,148.05-118.49,189.17-118.49,189.17,59.24-121.73,64.18-368.48,64.18-368.48-11.52-77.32,3.29-332.29,3.29-332.29-49.37,92.12-72.41,349.56-72.41,349.56-4.94-51.82-46.08-152.99-46.08-152.99-7.4,80.6-65.83,159.57-65.83,159.57-13.17-24.67-32.09-64.98-32.09-64.98,0,0-18.93,40.3-32.09,64.98,0,0-58.42-78.96-65.83-159.57,0,0-41.14,101.17-46.08,152.99,0,0-23.04-257.44-72.41-349.56,0,0,14.81,254.98,3.29,332.29,0,0,4.94,246.75,64.18,368.48,0,0-91.34-41.12-118.49-189.17,0,0-4.94,85.54,15.63,139.83-48.9-32.32-49.02-122.98-42.65-201.95l54.66-32.07-51.53-2.1c2.34-23.54,4.71-44.85,5.74-61.67,1.65-27.14,2.08-58.5-.09-92.6l52.75-30.96-55.65-2.27c-3.97-35.78-10.99-73.83-22.47-112.64l47.68-39.77-58.3,7.25c-12.19-33.93-28.01-68.12-48.37-101.6l32.64-53.65-51.36,24.97c-41.8-59.81-99.39-116.34-178.2-163.74,0,0,197.48-9.05,315.97,152.16,0,0-66.65-213.85-464.91-200.69,0,0,459.15,203.98,353.82,602.07,0,0-41.14-46.06-52.66-78.96,0,0-31.27,122.55-13.17,211.38,0,0-116.02-196.58-145.64-379.17,0,0-62.54,299.39,57.6,583.98,0,0-51.84-49.35-63.36-78.14,0,0,0,100.35,37.85,177.66,0,0-142.35-181.77-145.64-403.85,0,0-87.22,172.73-3.29,421.12,0,0-6.58-144.76,7.41-202.34,0,0,37.03,252.51,293.75,342.99,0,0,28.8,81.43,53.49,120.91,0,0,2.47-41.95,13.16-58.4,0,0,131.65,112.68,159.63,291.99,0,0-50.19-78.14-90.51-106.93,0,0-62.24-44.56-78.17-96.23,0,0-2.47,37.84,5.76,59.22,0,0-129.19-125.85-176.09-224.55,0,0,18.93,95.41,53.49,134.89,0,0-163.18-117.17-209-210.56,0,0,32.09,136.54,144,217.96,0,0-213.12-70.74-261.67-115.97,0,0,65,102.82,236.98,157.92,0,0,306.1,123.38,302.81,407.96,0,0,34.56-144.76-13.17-245.1,0,0,77.35,77.31,100.39,125.02,0,0-51.02,101.99-23.04,190.82,0,0,5.76-65.8,40.32-115.97,0,0-8.23,60.86,2.47,95.41,23.48-108.54,118.81-307.67,111.91-399.74,0,0-21.39,37.84-36.2,44.42,0,0-32.91-98.7-28.8-176.84,0,0-26.33,88.83-12.34,139.82,0,0-32.91-91.3-25.51-190.82,0,0-16.46,21.38-16.46,46.88,0,0-188.43-195.76-232.87-291.17,0,0,55.95,141.47,105.32,213.85,0,0-223.81-223.72-258.37-528.05,0,0,126.72,210.56,192.55,294.46,0,0,171.15,131.6,204.89,226.19,0,0,4.11-59.22-1.65-82.25,0,0,70.76,50.99,81.46,106.92,0,0-2.47-101.99-52.66-152.16,0,0,73.25,48.53,97.1,55.11,23.85-6.58,97.1-55.11,97.1-55.11-50.19,50.17-52.66,152.16-52.66,152.16,10.7-55.93,81.46-106.92,81.46-106.92-5.76,23.03-1.65,82.25-1.65,82.25,33.74-94.59,204.89-226.19,204.89-226.19,65.83-83.9,192.55-294.46,192.55-294.46-34.56,304.33-258.37,528.05-258.37,528.05,49.37-72.38,105.32-213.85,105.32-213.85-44.43,95.41-232.87,291.17-232.87,291.17,0-25.5-16.46-46.88-16.46-46.88,7.4,99.52-25.51,190.82-25.51,190.82,13.99-50.99-12.34-139.82-12.34-139.82,4.11,78.14-28.8,176.84-28.8,176.84-14.81-6.58-36.2-44.42-36.2-44.42-6.91,92.07,88.43,291.2,111.91,399.74,10.7-34.55,2.47-95.41,2.47-95.41,34.56,50.17,40.32,115.97,40.32,115.97,27.98-88.83-23.04-190.82-23.04-190.82,23.04-47.71,100.39-125.02,100.39-125.02-47.73,100.34-13.17,245.1-13.17,245.1-3.29-284.59,302.81-407.96,302.81-407.96,171.98-55.11,236.98-157.92,236.98-157.92-48.55,45.24-261.67,115.97-261.67,115.97,111.91-81.43,144-217.96,144-217.96-45.83,93.39-209,210.56-209,210.56,34.56-39.48,53.49-134.89,53.49-134.89-46.9,98.7-176.09,224.55-176.09,224.55,8.23-21.38,5.76-59.22,5.76-59.22-15.93,51.67-78.17,96.23-78.17,96.23-40.32,28.79-90.51,106.93-90.51,106.93,27.98-179.31,159.63-291.99,159.63-291.99,10.7,16.45,13.16,58.4,13.16,58.4,24.69-39.48,53.49-120.91,53.49-120.91,256.73-90.47,293.75-342.99,293.75-342.99,13.99,57.57,7.41,202.34,7.41,202.34,83.93-248.39-3.29-421.12-3.29-421.12-3.29,222.08-145.64,403.85-145.64,403.85,37.85-77.32,37.85-177.66,37.85-177.66-11.52,28.79-63.36,78.14-63.36,78.14,120.14-284.58,57.6-583.98,57.6-583.98-29.62,182.6-145.64,379.17-145.64,379.17,18.1-88.83-13.16-211.38-13.16-211.38-11.52,32.9-52.66,78.96-52.66,78.96-105.32-398.09,353.82-602.07,353.82-602.07-398.26-13.16-464.91,200.69-464.91,200.69,118.49-161.21,315.97-152.16,315.97-152.16-78.81,47.4-136.4,103.93-178.2,163.74l-51.36-24.97,32.64,53.65c-20.37,33.48-36.19,67.67-48.37,101.6l-58.3-7.25,47.68,39.77c-11.47,38.82-18.5,76.87-22.47,112.64l-55.65,2.27,52.75,30.96c-2.17,34.1-1.74,65.46-.09,92.6,1.02,16.81,3.39,38.12,5.73,61.67Zm70.75,45.89c2.47,99.52-34.56,189.18-34.56,189.18,79.82-84.72,72.41-291.17,72.41-291.17-25.13,38.34-41.41,52.14-37.85,101.99Zm-724.13,0c-2.47,99.52,34.56,189.18,34.56,189.18-79.82-84.72-72.41-291.17-72.41-291.17,25.13,38.34,41.41,52.14,37.85,101.99Z"/>
    <path class="cls-12" d="m1864.72,2451.36c9.05,19.74,56.78,57.57,56.78,57.57,15.63,14.8,14.81,69.91,14.81,69.91-43.61-33.72-69.94-115.15-69.94-115.15l-1.65-5.14v-7.2Zm48.97,389.46l57.6,16.45c-38.44,44.62-75.99,74.46-119.73,111.45,22.38-40.26,47.24-84.83,62.13-127.9Zm-156.34,0c26.33-92.12,23.04-236.06,23.04-236.06,27.98,60.87,6.58,195.76,6.58,195.76,23.04-41.13,33.74-150.52,33.74-150.52,19.75,78.96-19.75,208.09-19.75,208.09l-54.31,19.74,4.94-11.51,5.76-25.5Zm-171.56-370.12c97.1,5.76,129.19,52.64,129.19,52.64-46.9-17.27-144-23.85-144-23.85,30.45,4.93,74.06,26.32,74.06,26.32-241.92-3.29-309.39-84.72-309.39-84.72,110.18,28.3,133.84,30.49,250.15,29.61Zm113.55-98.69l5.76,60.87c-25.51-39.48-134.95-106.1-134.95-106.1,55.41,6.39,77.55,12.47,129.19,45.24Zm-158.81-156.27l95.86,67.03-41.14-2.47-115.2-63.33,60.48-1.23Zm-81.67-86.15c48.61-3.72,93.51-6.81,142.76-4.32,35.38,25.5,67.47,132.42,67.47,132.42-47.63-62.18-132.62-112.38-210.24-128.1Zm-25.1-99.73c47.73,9.87,130.83,55.11,130.83,55.11-47.72-.82-120.96,9.05-120.96,9.05-33.74-27.14-106.15-35.37-106.15-35.37l96.27-28.79Zm709.51,421.5c-9.05,19.74-56.78,57.57-56.78,57.57-15.63,14.8-14.81,69.91-14.81,69.91,43.61-33.72,69.94-115.15,69.94-115.15l1.65-5.14v-7.2Zm-48.97,389.46l-57.6,16.45c38.44,44.62,75.99,74.46,119.73,111.45-22.38-40.26-47.24-84.83-62.13-127.9Zm156.34,0c-26.33-92.12-23.04-236.06-23.04-236.06-27.98,60.87-6.58,195.76-6.58,195.76-23.04-41.13-33.74-150.52-33.74-150.52-19.75,78.96,19.75,208.09,19.75,208.09l54.31,19.74-4.94-11.51-5.76-25.5Zm171.56-370.12c-97.1,5.76-129.19,52.64-129.19,52.64,46.9-17.27,144-23.85,144-23.85-30.44,4.93-74.06,26.32-74.06,26.32,241.92-3.29,309.39-84.72,309.39-84.72-110.18,28.3-133.84,30.49-250.15,29.61Zm-5.76-141.47l-29.62,4.94c-26.33,4.94-78.17,37.84-78.17,37.84l-5.76,60.87c25.51-39.48,134.95-106.1,134.95-106.1l-21.39,2.47Zm51.02-113.5l-95.86,67.03,41.14-2.47,115.2-63.33-60.48-1.23Zm81.67-86.15c-48.61-3.72-93.51-6.81-142.76-4.32-35.38,25.5-67.47,132.42-67.47,132.42,47.63-62.18,132.62-112.38,210.24-128.1Zm25.1-99.73c-47.72,9.87-130.83,55.11-130.83,55.11,47.72-.82,120.96,9.05,120.96,9.05,33.74-27.14,106.15-35.37,106.15-35.37l-96.27-28.79Zm-570.23,791.22c-47.1,0-74.68-17.27-74.68-17.27,20.98.41,53.07-9.87,53.07-9.87-27.98,4.11-72-12.34-72-12.34,53.08-3.29,93.61-23.44,93.61-23.44,0,0,40.53,20.15,93.61,23.44,0,0-44.02,16.45-72,12.34,0,0,32.09,10.28,53.07,9.87,0,0-27.58,17.27-74.68,17.27Zm0,258.68c-52.45-118.44,0-222.08,0-222.08,0,0,52.45,103.64,0,222.08Zm-673.09-1193.83s139.88,74.03,177.73,118.44c0,0-382.63-105.28-435.29-337.23,0,0-11.52-113.51,8.23-208.92,0,0,13.99-131.6,1.65-207.27,0,0,39.5,100.35,23.86,243.46,0,0-23.68,114.08,80.64,194.11,0,0-58.42-61.69-42.79-224.54,0,0,16.46-219.61-92.98-324.89,0,0,4.94,282.12-26.33,428.52,0,0-42.79,266.49,156.34,348.74,0,0,120.96,72.38,198.31,94.59,0,0-90.51,5.76-155.52,78.14,0,0,104.5,4.94,162.1,32.9,0,0-23.04,3.29-53.49,26.32,0,0,70.76,6.58,104.5,27.14,0,0-71.59-2.47-112.73,20.56,0,0,130.01,25.5,192.55,90.48,0,0-30.45-10.69-82.28-2.47,0,0,176.09,91.3,215.59,164.5-86.25-6.63-178.34,4.97-256.61-11.91-240.56-51.91-77.26-297.33-251.09-358.21,128.79,114.61-40.96,379.83,236.16,443.33,0,0,131.66,32.9,231.22,22.21,0,0,170.33-36.19,130.83,190.82,0,0-16.45,148.05-52.66,196.58,0,0,97.09-23.85,139.06-46.88,0,0-18.93,132.42-50.19,162.03,0,0,124.25-32.08,145.64-83.9,0,0,29.63,115.97,80.64,180.95,51.01-64.98,80.64-180.95,80.64-180.95,21.39,51.82,145.64,83.9,145.64,83.9-31.27-29.61-50.19-162.03-50.19-162.03,41.97,23.03,139.06,46.88,139.06,46.88-36.2-48.53-52.66-196.58-52.66-196.58-39.5-227.01,130.83-190.82,130.83-190.82,99.56,10.69,231.22-22.21,231.22-22.21,277.11-63.5,107.36-328.71,236.15-443.33-173.83,60.88-10.52,306.31-251.08,358.21-78.27,16.89-170.36,5.28-256.61,11.91,39.5-73.2,215.59-164.5,215.59-164.5-51.84-8.23-82.28,2.47-82.28,2.47,62.54-64.98,192.55-90.48,192.55-90.48-41.14-23.03-112.73-20.56-112.73-20.56,33.74-20.56,104.5-27.14,104.5-27.14-30.44-23.03-53.49-26.32-53.49-26.32,57.6-27.96,162.1-32.9,162.1-32.9-65-72.38-155.52-78.14-155.52-78.14,77.35-22.21,198.31-94.59,198.31-94.59,199.13-82.25,156.34-348.74,156.34-348.74-31.27-146.41-26.33-428.52-26.33-428.52-109.44,105.28-92.98,324.89-92.98,324.89,15.63,162.86-42.79,224.54-42.79,224.54,104.32-80.03,80.64-194.11,80.64-194.11-15.63-143.11,23.86-243.46,23.86-243.46-12.34,75.67,1.65,207.27,1.65,207.27,19.75,95.41,8.23,208.92,8.23,208.92-52.66,231.95-435.29,337.23-435.29,337.23,37.85-44.42,177.73-118.44,177.73-118.44-553.19,154.98-331.95,525.83-487.12,636.62,25.51-47.71,25.51-114.33,25.51-114.33-14.81,60.87-58.42,124.2-58.42,124.2,21.39-69.09,6.58-145.17,6.58-145.17-16.23,38.71-57.6,62.92-57.6,62.92,5.76-91.3-58.42-180.13-58.42-180.13,37.85,107.75-8.23,284.59-8.23,284.59,4.11-51-6.58-115.15-6.58-115.15-5.76,60.86-28.8,126.66-28.8,126.66,0,0-23.04-65.8-28.8-126.66,0,0-10.7,64.15-6.58,115.15,0,0-46.08-176.84-8.23-284.59,0,0-64.18,88.83-58.42,180.13,0,0-41.37-24.21-57.6-62.92,0,0-14.81,76.08,6.58,145.17,0,0-43.61-63.33-58.42-124.2,0,0,0,66.62,25.51,114.33-155.17-110.79,66.07-481.63-487.12-636.62Z"/>
    <path class="cls-5" d="m1655.89,1847.43c5.07,41.1,22.25,81.28,22.25,81.28-8.23-21.38-5.76-59.22-5.76-59.22,0,0-5.87-13.03-4.11-30.43-24.69-39.48-53.49-120.91-53.49-120.91,4.97,64.83,41.11,129.28,41.11,129.28"/>
    <path class="cls-5" d="m2352.09,1847.43c-5.07,41.1-22.25,81.28-22.25,81.28,8.23-21.38,5.76-59.22,5.76-59.22,0,0,5.87-13.03,4.11-30.43,24.69-39.48,53.49-120.91,53.49-120.91-4.97,64.83-41.11,129.28-41.11,129.28"/>
    <path class="cls-10" d="m2147.96,2751.86c-2.05,28.79,15.67,68.4,15.67,68.4-17.79-7.75-39.29-32.81-50.54-48,16.05-6.17,34.88-20.39,34.88-20.39"/>
    <path class="cls-10" d="m1860.02,2751.86c2.06,28.79-15.66,68.4-15.66,68.4,17.79-7.75,39.29-32.81,50.54-48-16.05-6.17-34.88-20.39-34.88-20.39"/>
    <path class="cls-7" d="m1875.62,2346.53c-10.7-34.55-2.47-95.41-2.47-95.41-34.56,50.17-40.32,115.97-40.32,115.97-27.98-88.83,23.04-190.82,23.04-190.82-52.42,83.55-51.26,178.83-51.26,178.83-21.39-27.97-35.97-58.74-35.97-58.74,2.67-231.1-198.68-355.89-274.46-394.64,19.33,22.24-34.97,8.2-34.97,8.2-43.61-18.1-160.45-50.99-160.45-50.99-96.27-23.03-142.35-89.66-142.35-89.66,12.34,15.63,88.87,44.42,88.87,44.42-193.68-135.77-138.2-319.28-138.2-319.28,15.63-143.11-23.86-243.46-23.86-243.46,12.34,75.67-1.65,207.27-1.65,207.27-19.75,95.41-8.23,208.92-8.23,208.92,52.66,231.95,435.29,337.23,435.29,337.23-37.85-44.42-177.73-118.44-177.73-118.44,553.19,154.98,331.95,525.83,487.12,636.62-25.51-47.71-25.51-114.33-25.51-114.33,14.81,60.87,58.42,124.2,58.42,124.2-21.39-69.09-6.58-145.17-6.58-145.17,16.23,38.71,57.6,62.92,57.6,62.92-5.76-91.3,58.42-180.13,58.42-180.13-44.19,44.07-68.54,105.63-68.54,105.63-12.46-29.33-.19-87.24-.19-87.24-6.7,21.14-12.28,40.78-16.03,58.11"/>
    <path class="cls-7" d="m2047.61,2270.04s64.18,88.83,58.42,180.13c0,0,41.37-24.21,57.6-62.92,0,0,14.81,76.08-6.58,145.17,0,0,43.61-63.33,58.42-124.2,0,0,0,66.62-25.51,114.33,155.17-110.79-66.07-481.63,487.12-636.62,0,0-139.88,74.03-177.73,118.44,0,0,382.63-105.28,435.29-337.23,0,0,11.52-113.51-8.23-208.92,0,0-13.99-131.6-1.65-207.27,0,0-39.49,100.35-23.86,243.46,0,0,55.48,183.51-138.2,319.28,0,0,76.53-28.79,88.87-44.42,0,0-46.08,66.63-142.35,89.66,0,0-116.84,32.9-160.45,50.99,0,0-54.3,14.04-34.97-8.2-75.78,38.74-277.13,163.54-274.46,394.64,0,0-14.57,30.77-35.97,58.74,0,0,1.16-95.27-51.26-178.83,0,0,51.02,101.99,23.04,190.82,0,0-5.76-65.8-40.32-115.97,0,0,8.23,60.86-2.47,95.41-3.75-17.33-9.33-36.97-16.03-58.11,0,0,12.28,57.92-.19,87.24,0,0-24.34-61.56-68.54-105.63"/>
    <path class="cls-7" d="m2039.38,2554.62s46.08-176.84,8.23-284.59c0,0,10.94,114.26-1.41,153.74,0,0-4.96-20.02-17.69-36.19,0,0-4.77,54.35-24.52,92.19-19.75-37.84-24.52-92.19-24.52-92.19-12.73,16.17-17.69,36.19-17.69,36.19-12.34-39.48-1.41-153.74-1.41-153.74-37.85,107.75,8.23,284.59,8.23,284.59-4.12-51,6.58-115.15,6.58-115.15,5.76,60.86,28.8,126.66,28.8,126.66,0,0,23.04-65.8,28.8-126.66,0,0,10.7,64.15,6.58,115.15"/>
    <path class="cls-7" d="m1614.78,1718.14c-245.2-86.41-289.99-320.63-293.52-341.5,3.09,18.67,36.84,208.56,148.06,327.03,0,0,17.31,51.24,47.72,88.01l36.06,44.47c-33.02-41.05-51.05-131.99-51.05-131.99,46.9,98.7,176.09,224.55,176.09,224.55,0,0-96.09-118.1-117.48-199.53,0,0,28.43,2.62,54.12-11.03"/>
    <path class="cls-7" d="m1951.32,1991.21c14.81-6.58,36.2-44.42,36.2-44.42,1.76,23.42-3.1,53.78-11.71,87.8,9.91-27.64,28.18-48.81,28.18-48.81,0,0,18.27,21.17,28.18,48.81-8.61-34.03-13.47-64.38-11.71-87.8,0,0,21.39,37.84,36.2,44.42,0,0,32.91-98.7,28.8-176.84,0,0,26.33,88.83,12.34,139.82,0,0,32.91-91.3,25.51-190.82,0,0,16.46,21.38,16.46,46.88,0,0,188.44-195.76,232.87-291.17,0,0-55.95,141.47-105.32,213.85,0,0,223.81-223.72,258.37-528.05,0,0-77.38,227.98-126.91,298.91,0,0,2.47-18.92,1.65-47.7,0,0-195.2,275.05-255.08,316.66,0,0,18.59-90.45,50.02-146.8-29.94,33.19-56,68.39-67.12,99.58,0,0-4.11-59.22,1.65-82.25,0,0-60.58,43.65-78.11,94.48l-3.35,12.44s31.9-35.85,47.54-47.36c0,0,15.35,86.55,8.23,125.02,0,0-7.41-34.55-30.45-46.06,0,0,1.94,95.95-24.68,150.52,0,0-37.5-16.31-45.08-46.81-7.58,30.5-45.08,46.81-45.08,46.81-26.62-54.57-24.68-150.52-24.68-150.52-23.04,11.52-30.45,46.06-30.45,46.06-7.13-38.47,8.23-125.02,8.23-125.02,15.63,11.52,47.54,47.36,47.54,47.36l-3.35-12.44c-17.53-50.83-78.11-94.48-78.11-94.48,5.76,23.03,1.65,82.25,1.65,82.25-11.12-31.18-37.18-66.39-67.12-99.58,31.44,56.36,50.02,146.8,50.02,146.8-59.88-41.61-255.08-316.66-255.08-316.66-.82,28.79,1.65,47.7,1.65,47.7-49.53-70.93-126.91-298.91-126.91-298.91,34.56,304.33,258.37,528.05,258.37,528.05-49.37-72.38-105.32-213.85-105.32-213.85,44.43,95.41,232.87,291.17,232.87,291.17,0-25.5,16.46-46.88,16.46-46.88-7.4,99.52,25.51,190.82,25.51,190.82-13.99-50.99,12.34-139.82,12.34-139.82-4.11,78.14,28.8,176.84,28.8,176.84"/>
    <path class="cls-5" d="m2115.1,2284.57c-24.68-76.96-63.43-172.9-82.93-249.98-9.91-27.64-28.18-48.81-28.18-48.81,0,0-18.27,21.17-28.18,48.81-19.51,77.08-58.26,173.01-82.93,249.98,37.14-74.72,68.78-189.15,111.11-243.27,42.33,54.12,73.97,168.54,111.11,243.27"/>
    <path class="cls-5" d="m1855.87,2176.28c-23.04-47.71-100.39-125.02-100.39-125.02,47.73,100.34,13.17,245.1,13.17,245.1,0,0,39.94-108.08,40.5-146.91,0,0,30.08,10.05,46.72,26.82"/>
    <path class="cls-5" d="m2252.5,2051.26s-77.35,77.31-100.39,125.02c16.64-16.77,46.72-26.82,46.72-26.82.56,38.83,40.5,146.91,40.5,146.91,0,0-34.56-144.76,13.17-245.1"/>
    <path class="cls-5" d="m1379.63,1616.47c-51.02-96.23-58.61-241.31-58.61-241.31-13.99,57.57-7.41,202.34-7.41,202.34,0,0,9.9,28.62,32.91,50.99,45.83,93.39,209,210.56,209,210.56-.82-.94-1.63-1.9-2.43-2.9l-36.06-44.47c-6.45-7.8-12.31-16.25-17.54-24.72-126.16-67.47-157.72-207.24-157.72-207.24,7.41,18.92,37.85,56.75,37.85,56.75"/>
    <path class="cls-5" d="m1113.05,1581.57s10.1,124.57,144.8,224.07c0,0-31.27-37.84-38.68-54.7,0,0,110.96,111.56,264.28,145.44-11.1-5.36-17.61-7.98-17.61-7.98-171.97-55.11-236.98-157.92-236.98-157.92-26.64-18.84-41.14-41.95-41.14-41.95-43.42-33.31-64.67-72.52-74.68-106.95"/>
    <path class="cls-5" d="m1482.3,1204.9s79.59,180.04,107.56,228.56c0,0-8.64-34.96-10.7-48.53,0,0,119.31,171.08,161.28,221.26,0,0-19.75-38.25-27.57-54.7,0,0,57.44,31.35,90.79,64.72-59.19-63.32-128.82-116.86-128.82-116.86-65.83-83.9-192.55-294.46-192.55-294.46"/>
    <path class="cls-5" d="m2628.35,1616.47c51.02-96.23,58.61-241.31,58.61-241.31,13.99,57.57,7.41,202.34,7.41,202.34,0,0-9.9,28.62-32.91,50.99-45.83,93.39-209,210.56-209,210.56.82-.94,1.63-1.9,2.43-2.9l36.06-44.47c6.45-7.8,12.31-16.25,17.54-24.72,126.16-67.47,157.72-207.24,157.72-207.24-7.41,18.92-37.85,56.75-37.85,56.75"/>
    <path class="cls-5" d="m2894.94,1581.57s-10.1,124.57-144.8,224.07c0,0,31.27-37.84,38.67-54.7,0,0-110.96,111.56-264.28,145.44,11.1-5.36,17.61-7.98,17.61-7.98,171.98-55.11,236.98-157.92,236.98-157.92,26.64-18.84,41.14-41.95,41.14-41.95,43.42-33.31,64.67-72.52,74.67-106.95"/>
    <path class="cls-7" d="m2393.2,1718.14c245.2-86.41,289.99-320.63,293.52-341.5-3.09,18.67-36.84,208.56-148.06,327.03,0,0-17.31,51.24-47.72,88.01l-36.06,44.47c33.02-41.05,51.05-131.99,51.05-131.99-46.9,98.7-176.09,224.55-176.09,224.55,0,0,96.09-118.1,117.48-199.53,0,0-28.43,2.62-54.12-11.03"/>
    <path class="cls-7" d="m2062.18,1326.32c-6.26,47.53-23.43,97.38-58.19,145.64-34.75-48.26-51.92-98.11-58.19-145.64-8.79,71.14.37,155.81,58.19,236.12,57.82-80.3,66.98-164.97,58.19-236.12"/>
    <path class="cls-5" d="m2048.43,1750.21s2.47-101.99,52.66-152.16c0,0-73.25,48.53-97.1,55.11-23.85-6.58-97.1-55.11-97.1-55.11,50.19,50.17,52.66,152.16,52.66,152.16,0,0,8.01-23.53,8.01-56.43,0,0,5.56,27.96,6.18,53.87,1.82,76.39,53.27,48.31,59.24,1.66,4.05,42.91-19.98,62.55-20.74,63.16,35.12-6.49,34.92-65.9,36.19-62.26"/>
    <path class="cls-5" d="m2026.56,1199.94c-12.19-27.55-22.57-43.82-22.57-43.82,0,0-46.09,72.29-58.19,170.2,0,0,12.77-34.1,36.55-58.1,0,0,9.05,31.17,49.79,29.53,0,0-12.55,4.67-33.21.25,10.37,9.92,24.43,16.02,39.91,16.02,7.41,0,14.49-1.4,20.99-3.94-7.35-44.55-21.21-82.87-33.28-110.14"/>
    <path class="cls-5" d="m1858.33,1224.39l41.55-76.08s21.8,36.6,50.6,43.18c-25.51-20.56-51.84-90.48-51.84-90.48l-40.32,123.38Z"/>
    <path class="cls-5" d="m2149.65,1224.39l-41.55-76.08s-21.8,36.6-50.6,43.18c25.51-20.56,51.84-90.48,51.84-90.48l40.32,123.38Z"/>
    <path class="cls-5" d="m1619.47,1195.35s17.44,20.23,22.52,68.68c-.21-7.11-.24-14.3-.06-21.54,3.56-49.85-12.72-63.65-37.85-101.99,0,0-4.07,113.47,26.35,206.69,0,0-15.07-90.14-10.95-151.83"/>
    <path class="cls-5" d="m2388.51,1195.35s-17.44,20.23-22.52,68.68c.21-7.11.24-14.3.06-21.54-3.56-49.85,12.72-63.65,37.85-101.99,0,0,4.07,113.47-26.35,206.69,0,0,15.07-90.14,10.95-151.83"/>
    <path class="cls-8" d="m1532.49,1612.16s-24.93-39.69-30.28-76.29c0,0,25.63,7.56,31.65,19.76l-10.43-21.15-51.84-39.48s16.28,65.1,60.9,117.16"/>
    <path class="cls-5" d="m2475.49,1612.16s24.93-39.69,30.28-76.29c0,0-25.63,7.56-31.64,19.76l10.43-21.15,51.84-39.48s-16.28,65.1-60.9,117.16"/>
    <path class="cls-5" d="m2525.68,1204.9s-79.59,180.04-107.56,228.56c0,0,8.64-34.96,10.7-48.53,0,0-119.31,171.08-161.28,221.26,0,0,19.75-38.25,27.57-54.7,0,0-57.44,31.35-90.79,64.72,59.19-63.32,128.82-116.86,128.82-116.86,65.83-83.9,192.55-294.46,192.55-294.46"/>
    <path class="cls-8" d="m1457.47,2082.58c-33.74-27.14-70.04-23.88-70.04-23.88l25.58-22.64-75.53,22.59s72.41,8.23,106.15,35.37c0,0,73.23-9.87,120.96-9.05-47.72-.82-107.12-2.38-107.12-2.38"/>
    <path class="cls-8" d="m1645.96,2194.74c-48.39-45.19-187.1-65.15-187.1-65.15,77.62,15.72,162.61,65.92,210.24,128.1,0,0-9.18-30.59-23.14-62.95"/>
    <polygon class="cls-8" points="1516.61 2222.66 1540.52 2215.73 1480.04 2216.97 1595.24 2280.3 1516.61 2222.66"/>
    <path class="cls-8" d="m1702.17,2402c-39.9-34.44-132.03-75.23-132.03-75.23,0,0,109.44,66.62,134.95,106.1l-2.92-30.87Z"/>
    <path class="cls-8" d="m2550.51,2082.58c33.74-27.14,70.04-23.88,70.04-23.88l-25.58-22.64,75.53,22.59s-72.41,8.23-106.15,35.37c0,0-73.23-9.87-120.96-9.05,47.72-.82,107.12-2.38,107.12-2.38"/>
    <path class="cls-8" d="m2362.02,2194.74c48.39-45.19,187.1-65.15,187.1-65.15-77.62,15.72-162.61,65.92-210.24,128.1,0,0,9.18-30.59,23.14-62.95"/>
    <polygon class="cls-8" points="2491.37 2222.66 2467.46 2215.73 2527.94 2216.97 2412.74 2280.3 2491.37 2222.66"/>
    <path class="cls-8" d="m2305.81,2402c39.9-34.44,132.03-75.23,132.03-75.23,0,0-109.44,66.62-134.95,106.1l2.92-30.87Z"/>
    <path class="cls-5" d="m1437.04,569.92s289.82,16.36,323.95,319.46c0,0,1.65-69.92-4.94-106.93,0,0,31.28,88.87,22.75,231.95-7.57,127.07-18.68,293.74,54.34,409.93-38.62-128.51-42.27-310.74-42.27-310.74,11.52-77.32-3.29-332.29-3.29-332.29-11.89-26.47-34.56-59.22-34.56-59.22-118.49-161.21-315.97-152.16-315.97-152.16"/>
    <path class="cls-6" d="m2236.91,1011.37l52.75,30.96c-2.17,34.1-1.74,65.46-.09,92.6,1.02,16.81,3.39,38.12,5.73,61.67l-21.45.88c-13.04-54.63-5.88-144-5.88-144l-31.07-42.1Zm30.44-154.68l47.68,39.77c-11.47,38.82-18.5,76.87-22.47,112.64l-20.86.85c-3.68-30.36,20.14-103.71,20.14-103.71l-24.49-49.56Zm74.03-148l32.64,53.65c-20.36,33.48-36.19,67.67-48.37,101.6l-25-3.11c6.76-42.54,51.66-103.05,51.66-103.05l-10.94-49.1Zm229.56-138.77c-78.81,47.4-136.4,103.93-178.2,163.74l-17.64-8.58c31.65-65.03,131.69-123.48,195.84-155.17Zm-299.52,722.98c-27.15,148.05-118.49,189.17-118.49,189.17,8.33-17.12,15.59-36.71,21.91-57.74h0c60.12-38.34,100.33-184.56,100.33-184.56l-31.4-41.07,54.65,32.07c6.37,78.98,6.25,169.63-42.65,201.95,20.57-54.29,15.63-139.83,15.63-139.83Z"/>
    <path class="cls-5" d="m2570.94,569.92s-289.82,16.36-323.95,319.46c0,0-1.65-69.92,4.94-106.93,0,0-31.28,88.87-22.75,231.95,7.57,127.07,18.68,293.74-54.33,409.93,38.62-128.51,42.27-310.74,42.27-310.74-11.52-77.32,3.29-332.29,3.29-332.29,11.89-26.47,34.56-59.22,34.56-59.22,118.49-161.21,315.97-152.16,315.97-152.16"/>
    <path class="cls-7" d="m1913.68,2840.82c-9.49,27.48-23.05,55.56-37.43,82.74l43.33-47.42s12.78-2.02,28.6,6.39c7.7-7.94,15.38-16.3,23.1-25.26l-57.6-16.45Z"/>
    <path class="cls-7" d="m1801.9,2854.89c5.89-20.37,36.72-133.27,18.8-204.89,0,0-10.7,109.39-33.74,150.52,0,0,21.39-134.89-6.58-195.76,0,0,.89,38.86-1.95,89.12,0,0,1.27,111.93-6.96,154.7,0,0,33.74-50.58,39.91-75.67,0,0-3.93,60.58-9.48,81.98"/>
    <path class="cls-7" d="m2003.99,2857.68s-21.28,42.05-23.18,103.19c0,0,18.05-63.46,46.29-1.72-2.23-60.21-23.12-101.47-23.12-101.47"/>
    <path class="cls-7" d="m2094.3,2840.82c9.49,27.48,23.05,55.56,37.43,82.74l-43.33-47.42s-12.78-2.02-28.61,6.39c-7.7-7.94-15.38-16.3-23.1-25.26l57.6-16.45Z"/>
    <path class="cls-7" d="m2206.08,2854.89c-5.89-20.37-36.72-133.27-18.8-204.89,0,0,10.7,109.39,33.74,150.52,0,0-21.39-134.89,6.58-195.76,0,0-.89,38.86,1.95,89.12,0,0-1.26,111.93,6.96,154.7,0,0-33.73-50.58-39.91-75.67,0,0,3.93,60.58,9.48,81.98"/>
    <path class="cls-5" d="m2297.7,457.73c8.09-42.48,61.6-76.07,102.23-72.89l-102.23,72.89Z"/>
    <path class="cls-5" d="m2767.72,104.13c8.05-42.23,71.05-44.76,67.94-43.68-22.34,7.78-32.23,40.35-67.94,43.68"/>
    <path class="cls-5" d="m2697.37,353.05c-9.18-23.15,20.85-43.93,19.66-42.44-8.51,10.73-3.23,29.73-19.66,42.44"/>
    <path class="cls-5" d="m2675.8,679.91c-23.05-36.29,21.14-81.24,19.61-78.33-10.96,20.96,4.15,51.47-19.61,78.33"/>
    <path class="cls-5" d="m2999.48,1029.47c-14.26-40.83,15.25-96.68,52.01-114.24l-52.01,114.24Z"/>
    <path class="cls-5" d="m2800.37,1065.82c-14.26-40.83,15.25-96.68,52.02-114.24l-52.02,114.24Z"/>
    <path class="cls-5" d="m1000.52,1029.47c14.26-40.83-15.25-96.68-52.01-114.24l52.01,114.24Z"/>
    <path class="cls-5" d="m1199.63,1065.82c14.26-40.83-15.25-96.68-52.02-114.24l52.02,114.24Z"/>
    <path class="cls-5" d="m1338.78,679.91c23.05-36.29-21.14-81.24-19.61-78.33,10.96,20.96-4.14,51.47,19.61,78.33"/>
    <path class="cls-5" d="m1585.78,2470.7c-116.31.88-139.96-1.31-250.15-29.61,0,0,86.65,38.92,208.43,38.92,0,0,74.19.22,121.78,24.9,5.18,2.69,10.04,5.66,14.46,8.96,12.85,2.71,24.85,5.86,34.66,9.47,0,0-13.41-19.59-49.12-35-19.53-8.43-45.74-15.61-80.07-17.64"/>
    <path class="cls-5" d="m2422.2,2470.7c116.31.88,139.96-1.31,250.15-29.61,0,0-86.65,38.92-208.43,38.92,0,0-74.19.22-121.78,24.9-5.18,2.69-10.04,5.66-14.46,8.96-12.85,2.71-24.85,5.86-34.66,9.47,0,0,13.41-19.59,49.12-35,19.53-8.43,45.74-15.61,80.07-17.64"/>
    <path class="cls-5" d="m1791.3,2387.4c-20.14,27.68-16.61,60.4-16.61,60.4-10.37-65.23-30.46-146.67-44.7-200.76,25.12,116.17,15.85,223.97,88.03,275.51-25.51-47.71-25.51-114.33-25.51-114.33,14.81,60.86,58.42,124.2,58.42,124.2-21.39-69.09-6.58-145.17-6.58-145.17-16.94,37.59-12.77,84.21-12.77,84.21-21.65-30.7-40.28-84.05-40.28-84.05"/>
    <path class="cls-5" d="m1844.35,2387.24c16.23,38.71,57.6,62.92,57.6,62.92-2.57-40.8,8.82-81.11,22.21-113.21-21.72,24.05-38.2,86.18-38.2,86.18-19.64-9.06-41.61-35.89-41.61-35.89"/>
    <path class="cls-5" d="m2216.68,2387.4c20.14,27.68,16.61,60.4,16.61,60.4,10.37-65.23,30.46-146.67,44.7-200.76-25.12,116.17-15.85,223.97-88.03,275.51,25.51-47.71,25.51-114.33,25.51-114.33-14.81,60.86-58.42,124.2-58.42,124.2,21.39-69.09,6.58-145.17,6.58-145.17,16.94,37.59,12.77,84.21,12.77,84.21,21.65-30.7,40.28-84.05,40.28-84.05"/>
    <path class="cls-5" d="m2163.63,2387.24c-16.23,38.71-57.6,62.92-57.6,62.92,2.57-40.8-8.82-81.11-22.21-113.21,21.72,24.05,38.2,86.18,38.2,86.18,19.64-9.06,41.61-35.89,41.61-35.89"/>
  </g>
  <g class="cls-25">
    <path class="cls-34" d="m1460.52,3729.41l-8.19,5.46v48.51c0,5.88,1.82,10.43,5.46,13.65h-35.28c3.64-3.22,5.46-7.77,5.46-13.65v-105.42l16.38-10.92h-16.38v-2.73c0-5.74-1.82-10.22-5.46-13.44h76.02c-3.64,3.22-5.46,7.7-5.46,13.44v18.9l-24.36,16.38v-21.63l16.17-10.92h-32.55v53.13l24.36-16.38v28.35l-16.17,10.71v-13.44Z"/>
    <path class="cls-1" d="m1559,3650.66c-3.64,3.36-5.46,7.91-5.46,13.65v119.07c0,5.74,1.82,10.29,5.46,13.65h-35.28c3.64-3.36,5.46-7.91,5.46-13.65v-119.07c0-5.74-1.82-10.29-5.46-13.65h35.28Z"/>
    <path class="cls-33" d="m1661.06,3797.03h-35.49c3.78-3.36,5.67-7.91,5.67-13.65v-59.64l-16.38,10.92v48.72c0,5.74,1.82,10.29,5.46,13.65h-35.28c3.64-3.36,5.46-7.91,5.46-13.65v-105.63l16.17-10.92h-16.17v-2.52c0-5.74-1.82-10.29-5.46-13.65h46.2l24.36,16.17v40.74l-18.27,12.18,18.27,12.18v51.45c0,5.74,1.82,10.29,5.46,13.65Zm-29.82-87.78v-42.42h-16.38v53.13l16.38-10.71Z"/>
    <path class="cls-40" d="m1711.67,3666.83h-20.16v-2.52c0-5.74-1.89-10.29-5.67-13.65h75.81c-3.64,3.36-5.46,7.91-5.46,13.65v2.52h-20.16v116.55c0,5.88,1.82,10.43,5.46,13.65h-35.28c3.64-3.22,5.46-7.77,5.46-13.65v-116.55Z"/>
    <path class="cls-27" d="m1833.26,3780.65v-53.13l-40.74,27.09v-76.86l16.24-10.92h-16.24v-2.52c0-5.88-1.82-10.43-5.46-13.65h76.02c-3.64,3.36-5.46,7.91-5.46,13.65v22.68l-24.36,16.17v-25.41l16.17-10.92h-32.55l.21,56.91,40.53-27.09v84l-24.36,16.38h-46.2c3.64-3.22,5.46-7.77,5.46-13.65v-18.9l24.36-16.38v21.84l-16.24,10.71h32.62Z"/>
    <path class="cls-17" d="m2006.3,3780.65v-32.34l24.36-16.38v38.01l-16.38,10.71h16.38v2.73c0,5.88,1.82,10.43,5.46,13.65h-75.81c3.64-3.36,5.46-7.91,5.46-13.65v-105.63l16.17-10.92h-16.17v-2.52c0-5.74-1.82-10.29-5.46-13.65h75.81c-3.64,3.22-5.46,7.77-5.46,13.65v18.9l-24.36,16.17v-21.63l16.24-10.92h-32.41l-.08,53.13,24.44-16.17v28.14l-16.17,10.92v-13.65l-8.19,5.46v35.28l-16.17,10.71h32.34Z"/>
    <path class="cls-29" d="m2133.56,3666.83v113.82l-29.82,16.38h-40.74c3.64-3.22,5.46-7.77,5.46-13.65v-105.63l16.38-10.92h-16.38v-2.52c0-5.88-1.82-10.43-5.46-13.65h46.2l24.36,16.17Zm-24.36,113.82v-113.82h-16.38v102.9l-16.17,10.92h32.55Z"/>
    <path class="cls-41" d="m2199.92,3650.66c-3.64,3.36-5.46,7.91-5.46,13.65v119.07c0,5.74,1.82,10.29,5.46,13.65h-35.28c3.64-3.36,5.46-7.91,5.46-13.65v-119.07c0-5.74-1.82-10.29-5.46-13.65h35.28Z"/>
    <path class="cls-31" d="m2249.69,3666.83h-20.16v-2.52c0-5.74-1.89-10.29-5.67-13.65h75.81c-3.64,3.36-5.46,7.91-5.46,13.65v2.52h-20.16v116.55c0,5.88,1.82,10.43,5.46,13.65h-35.28c3.64-3.22,5.46-7.77,5.46-13.65v-116.55Z"/>
    <path class="cls-21" d="m2359.31,3650.66c-3.64,3.36-5.46,7.91-5.46,13.65v119.07c0,5.74,1.82,10.29,5.46,13.65h-35.28c3.64-3.36,5.46-7.91,5.46-13.65v-119.07c0-5.74-1.82-10.29-5.46-13.65h35.28Z"/>
    <path class="cls-18" d="m2451.71,3780.86l-24.36,16.17h-16.38l-24.36-16.17v-113.82l24.36-16.17h16.38l24.36,16.17v113.82Zm-24.36-113.82h-16.38v113.82h16.38v-113.82Z"/>
    <path class="cls-42" d="m2509.03,3721.43v61.95c0,5.74,1.89,10.29,5.67,13.65h-35.49c3.64-3.22,5.46-7.77,5.46-13.65v-119.07c0-5.88-1.82-10.43-5.46-13.65h35.49c-3.78,3.36-5.67,7.91-5.67,13.65v35.07l16.38,24.36v-59.43c0-5.74-1.82-10.29-5.46-13.65h35.28c-3.64,3.36-5.46,7.91-5.46,13.65v119.07c0,5.74,1.82,10.29,5.46,13.65h-35.28c3.64-3.36,5.46-7.91,5.46-13.65v-37.59l-16.38-24.36Z"/>
  </g>
  <g class="cls-19">
    <path class="cls-43" d="m419.59,3312h-20.16v-2.52c0-5.74-1.89-10.29-5.67-13.65h75.81c-3.64,3.36-5.46,7.91-5.46,13.65v2.52h-20.16v116.55c0,5.88,1.82,10.43,5.46,13.65h-35.28c3.64-3.22,5.46-7.77,5.46-13.65v-116.55Z"/>
    <path class="cls-15" d="m614.47,3426.03l-24.36,16.17h-16.38l-24.36-16.17v-113.82l24.36-16.17h16.38l24.36,16.17v113.82Zm-24.36-113.82h-16.38v113.82h16.38v-113.82Z"/>
    <path class="cls-3" d="m741.31,3425.82v-116.34c0-5.74-1.82-10.29-5.46-13.65h35.28c-3.64,3.36-5.46,7.91-5.46,13.65v105.63l-16.17,10.71h16.17v2.73c0,5.74,1.82,10.29,5.46,13.65h-45.99l-24.57-16.38v-116.34c0-5.88-1.82-10.43-5.46-13.65h35.49c-3.78,3.22-5.67,7.77-5.67,13.65v116.34h16.38Z"/>
    <path class="cls-22" d="m926.74,3442.2h-35.49c3.78-3.36,5.67-7.91,5.67-13.65v-59.64l-16.38,10.92v48.72c0,5.74,1.82,10.29,5.46,13.65h-35.28c3.64-3.36,5.46-7.91,5.46-13.65v-105.63l16.17-10.92h-16.17v-2.52c0-5.74-1.82-10.29-5.46-13.65h46.2l24.36,16.17v40.74l-18.27,12.18,18.27,12.18v51.45c0,5.74,1.82,10.29,5.46,13.65Zm-29.82-87.78v-42.42h-16.38v53.13l16.38-10.71Z"/>
    <path class="cls-2" d="m1035.1,3366.6v61.95c0,5.74,1.89,10.29,5.67,13.65h-35.49c3.64-3.22,5.46-7.77,5.46-13.65v-119.07c0-5.88-1.82-10.43-5.46-13.65h35.49c-3.78,3.36-5.67,7.91-5.67,13.65v35.07l16.38,24.36v-59.43c0-5.74-1.82-10.29-5.46-13.65h35.28c-3.64,3.36-5.46,7.91-5.46,13.65v119.07c0,5.74,1.82,10.29,5.46,13.65h-35.28c3.64-3.36,5.46-7.91,5.46-13.65v-37.59l-16.38-24.36Z"/>
    <path class="cls-13" d="m1237.12,3442.2h-35.28c3.64-3.36,5.46-7.91,5.46-13.65v-59.43l-16.38,10.71v48.72c0,5.74,1.82,10.29,5.46,13.65h-35.28c3.64-3.22,5.46-7.77,5.46-13.65v-105.63l16.38-10.71h-16.38v-2.73c0-5.88-1.82-10.43-5.46-13.65h46.2c4.06,2.8,8.12,5.53,12.18,8.19,4.06,2.66,8.12,5.39,12.18,8.19v116.34c0,5.74,1.82,10.29,5.46,13.65Zm-29.82-87.78v-42.21h-16.38v52.92l16.38-10.71Z"/>
    <path class="cls-39" d="m1427.59,3309.48v119.07c0,5.88,1.82,10.43,5.46,13.65h-35.28c3.64-3.22,5.46-7.77,5.46-13.65v-116.34h-16.38v116.34c0,6.02,1.89,10.57,5.67,13.65h-35.49c3.64-3.08,5.46-7.63,5.46-13.65v-116.34h-16.17v116.34c0,5.88,1.82,10.43,5.46,13.65h-35.28c3.64-3.22,5.46-7.77,5.46-13.65v-105.42l16.17-10.92h-16.17v-2.73c0-5.74-1.82-10.22-5.46-13.44h45.99l12.28,7.98,12.08-7.98h46.2c-3.64,3.22-5.46,7.7-5.46,13.44Z"/>
    <path class="cls-16" d="m1558.63,3425.82v-32.34l24.36-16.38v38.01l-16.38,10.71h16.38v2.73c0,5.88,1.82,10.43,5.46,13.65h-75.81c3.64-3.36,5.46-7.91,5.46-13.65v-105.63l16.17-10.92h-16.17v-2.52c0-5.74-1.82-10.29-5.46-13.65h75.81c-3.64,3.22-5.46,7.77-5.46,13.65v18.9l-24.36,16.17v-21.63l16.24-10.92h-32.41l-.08,53.13,24.44-16.17v28.14l-16.17,10.92v-13.65l-8.19,5.46v35.28l-16.17,10.71h32.34Z"/>
    <path class="cls-24" d="m1697.23,3366.6v61.95c0,5.74,1.89,10.29,5.67,13.65h-35.49c3.64-3.22,5.46-7.77,5.46-13.65v-119.07c0-5.88-1.82-10.43-5.46-13.65h35.49c-3.78,3.36-5.67,7.91-5.67,13.65v35.07l16.38,24.36v-59.43c0-5.74-1.82-10.29-5.46-13.65h35.28c-3.64,3.36-5.46,7.91-5.46,13.65v119.07c0,5.74,1.82,10.29,5.46,13.65h-35.28c3.64-3.36,5.46-7.91,5.46-13.65v-37.59l-16.38-24.36Z"/>
    <path class="cls-32" d="m1847.38,3312h-20.16v-2.52c0-5.74-1.89-10.29-5.67-13.65h75.81c-3.64,3.36-5.46,7.91-5.46,13.65v2.52h-20.16v116.55c0,5.88,1.82,10.43,5.46,13.65h-35.28c3.64-3.22,5.46-7.77,5.46-13.65v-116.55Z"/>
    <path class="cls-38" d="m2164.69,3426.03l-24.36,16.17h-16.38l-24.36-16.17v-113.82l24.36-16.17h16.38l24.36,16.17v113.82Zm-24.36-113.82h-16.38v113.82h16.38v-113.82Z"/>
    <path class="cls-30" d="m2282.29,3374.58l-8.19,5.46v48.51c0,5.88,1.82,10.43,5.46,13.65h-35.28c3.64-3.22,5.46-7.77,5.46-13.65v-105.42l16.38-10.92h-16.38v-2.73c0-5.74-1.82-10.22-5.46-13.44h76.02c-3.64,3.22-5.46,7.7-5.46,13.44v18.9l-24.36,16.38v-21.63l16.17-10.92h-32.55v53.13l24.36-16.38v28.35l-16.17,10.71v-13.44Z"/>
    <path class="cls-26" d="m2526.51,3312.21v-2.73c0-5.74-1.82-10.22-5.46-13.44h35.28c-3.64,3.22-5.46,7.7-5.46,13.44v105.63l-16.38,10.92h32.55v-32.55l24.36-16.17v37.8l-16.17,10.92h16.17v2.52c0,6.02,1.89,10.57,5.67,13.65h-76.02c3.64-3.22,5.46-7.77,5.46-13.65v-116.34Z"/>
    <path class="cls-44" d="m2721.18,3425.82v-32.34l24.36-16.38v38.01l-16.38,10.71h16.38v2.73c0,5.88,1.82,10.43,5.46,13.65h-75.81c3.64-3.36,5.46-7.91,5.46-13.65v-105.63l16.17-10.92h-16.17v-2.52c0-5.74-1.82-10.29-5.46-13.65h75.81c-3.64,3.22-5.46,7.77-5.46,13.65v18.9l-24.36,16.17v-21.63l16.24-10.92h-32.41l-.08,53.13,24.44-16.17v28.14l-16.17,10.92v-13.65l-8.19,5.46v35.28l-16.17,10.71h32.34Z"/>
    <path class="cls-35" d="m2876.37,3426.03l-.21-53.13-7.98,5.46v-14.7l32.55-21.84v73.29l-16.38,10.92h16.38v2.52c0,5.88,1.82,10.43,5.46,13.65h-76.02c3.64-3.36,5.46-7.91,5.46-13.65v-105.63l16.17-10.71h-16.17v-2.73c0-5.74-1.82-10.29-5.46-13.65h76.02c-3.64,3.22-5.46,7.77-5.46,13.65v18.9l-24.36,16.17v-21.63l16.17-10.71h-32.55v102.9l-16.17,10.92h32.55Z"/>
    <path class="cls-14" d="m3031.98,3425.82v-32.34l24.36-16.38v38.01l-16.38,10.71h16.38v2.73c0,5.88,1.82,10.43,5.46,13.65h-75.81c3.64-3.36,5.46-7.91,5.46-13.65v-105.63l16.17-10.92h-16.17v-2.52c0-5.74-1.82-10.29-5.46-13.65h75.81c-3.64,3.22-5.46,7.77-5.46,13.65v18.9l-24.36,16.17v-21.63l16.24-10.92h-32.41l-.08,53.13,24.44-16.17v28.14l-16.17,10.92v-13.65l-8.19,5.46v35.28l-16.17,10.71h32.34Z"/>
    <path class="cls-36" d="m3170.58,3366.6v61.95c0,5.74,1.89,10.29,5.67,13.65h-35.49c3.64-3.22,5.46-7.77,5.46-13.65v-119.07c0-5.88-1.82-10.43-5.46-13.65h35.49c-3.78,3.36-5.67,7.91-5.67,13.65v35.07l16.38,24.36v-59.43c0-5.74-1.82-10.29-5.46-13.65h35.28c-3.64,3.36-5.46,7.91-5.46,13.65v119.07c0,5.74,1.82,10.29,5.46,13.65h-35.28c3.64-3.36,5.46-7.91,5.46-13.65v-37.59l-16.38-24.36Z"/>
    <path class="cls-37" d="m3367.14,3312v113.82l-29.82,16.38h-40.74c3.64-3.22,5.46-7.77,5.46-13.65v-105.63l16.38-10.92h-16.38v-2.52c0-5.88-1.82-10.43-5.46-13.65h46.2l24.36,16.17Zm-24.36,113.82v-113.82h-16.38v102.9l-16.17,10.92h32.55Z"/>
    <path class="cls-23" d="m3497.97,3425.82v-53.13l-40.74,27.09v-76.86l16.24-10.92h-16.24v-2.52c0-5.88-1.82-10.43-5.46-13.65h76.02c-3.64,3.36-5.46,7.91-5.46,13.65v22.68l-24.36,16.17v-25.41l16.17-10.92h-32.55l.21,56.91,40.53-27.09v84l-24.36,16.38h-46.2c3.64-3.22,5.46-7.77,5.46-13.65v-18.9l24.36-16.38v21.84l-16.24,10.71h32.62Z"/>
  </g>
</svg>